HIERARCHY
ROOT Hips
{
  OFFSET -32.5998 29.0326 120.673
  CHANNELS 6 Xposition Yposition Zposition Zrotation Xrotation Yrotation
  JOINT LeftUpLeg
  {
    OFFSET 8.64259 1.95398 -2.38835
    CHANNELS 3 Zrotation Xrotation Yrotation
    JOINT LeftLeg
    {
      OFFSET 43.7702 0 0
      CHANNELS 3 Zrotation Xrotation Yrotation
      JOINT LeftFoot
      {
        OFFSET 40.6238 0 0
        CHANNELS 3 Zrotation Xrotation Yrotation
        JOINT LeftToeBase
        {
          OFFSET 12.7242 0 0
          CHANNELS 3 Zrotation Xrotation Yrotation
          End Site
          {
            OFFSET 0 0 0
          }
        }
      }
    }
  }
  JOINT RightUpLeg
  {
    OFFSET -8.2249 1.95398 -2.59336
    CHANNELS 3 Zrotation Xrotation Yrotation
    JOINT RightLeg
    {
      OFFSET 43.5653 0 0
      CHANNELS 3 Zrotation Xrotation Yrotation
      JOINT RightFoot
      {
        OFFSET 40.6238 0 0
        CHANNELS 3 Zrotation Xrotation Yrotation
        JOINT RightToeBase
        {
          OFFSET 12.7242 0 0
          CHANNELS 3 Zrotation Xrotation Yrotation
          End Site
          {
            OFFSET 0 0 0
          }
        }
      }
    }
  }
  JOINT Spine
  {
    OFFSET 0.165834 0.87714 6.61349
    CHANNELS 3 Zrotation Xrotation Yrotation
    JOINT Spine1
    {
      OFFSET 7.38963 1.71661e-005 0
      CHANNELS 3 Zrotation Xrotation Yrotation
      JOINT Spine2
      {
        OFFSET 11.9445 1.14441e-005 0
        CHANNELS 3 Zrotation Xrotation Yrotation
        JOINT Spine3
        {
          OFFSET 14.7254 4.19617e-005 0
          CHANNELS 3 Zrotation Xrotation Yrotation
          JOINT Spine4
          {
            OFFSET 10.9679 0 0
            CHANNELS 3 Zrotation Xrotation Yrotation
            JOINT RightShoulder
            {
              OFFSET 2.46616 -1.6653 3.69651
              CHANNELS 3 Zrotation Xrotation Yrotation
              JOINT RightArm
              {
                OFFSET 13.0012 0 0
                CHANNELS 3 Zrotation Xrotation Yrotation
                JOINT RightForeArm
                {
                  OFFSET 28.7848 1.62311e-005 0
                  CHANNELS 3 Zrotation Xrotation Yrotation
                  JOINT RightHand
                  {
                    OFFSET 26.5688 1.62095e-005 0
                    CHANNELS 3 Zrotation Xrotation Yrotation
                    End Site
                    {
                      OFFSET 0 0 0
                    }
                  }
                }
              }
            }
            JOINT LeftShoulder
            {
              OFFSET 2.38034 -1.29275 -3.7523
              CHANNELS 3 Zrotation Xrotation Yrotation
              JOINT LeftArm
              {
                OFFSET 16.3182 6.07031e-005 0
                CHANNELS 3 Zrotation Xrotation Yrotation
                JOINT LeftForeArm
                {
                  OFFSET 27.0901 0 0
                  CHANNELS 3 Zrotation Xrotation Yrotation
                  JOINT LeftHand
                  {
                    OFFSET 24.5451 1.51738e-005 0
                    CHANNELS 3 Zrotation Xrotation Yrotation
                    End Site
                    {
                      OFFSET 0 0 0
                    }
                  }
                }
              }
            }
            JOINT Neck
            {
              OFFSET 5.0226 -0.0266342 0
              CHANNELS 3 Zrotation Xrotation Yrotation
              JOINT Head
              {
                OFFSET 6.69364 2.86102e-005 0
                CHANNELS 3 Zrotation Xrotation Yrotation
                End Site
                {
                  OFFSET 0 0 0
                }
              }
            }
          }
        }
      }
    }
  }
}
MOTION
Frames:	17
Frame Time:	0.0416667
-153.123 85.0735 -126.891 70.567 -33.9694 76.2405 -168.899 -0.797499 90.3439 -28.9875 14.4308 -3.62127 99.0955 25.7443 -3.9477 39.2089 3.59814 2.07402 -164.025 64.7654 84.2245 -93.1503 4.43212 -5.85025 85.2653 -14.1325 -6.364 21.2937 0.0505866 10.685 -3.20968 8.44183 -89.6322 10.0344 -6.22908 1.24667 -1.62243 -6.16817 1.52061 -24.2779 -6.31465 -0.690727 -4.26528 -6.31466 -0.690745 99.695 -24.4253 -87.6539 59.8312 -33.2421 60.7471 -69.3141 -8.2941 -69.3878 -9.76212 -0.0402454 -5.03865 -84.0674 -11.7019 79.9744 -13.6157 -22.1653 -75.2285 49.016 -12.4523 -97.1257 11.4211 0.777222 2.84022 37.7812 5.27485 -13.0871 -13.0684 11.2153 -0.293556 
-143.91 87.2224 -119.761 68.1798 -38.2348 78.7875 -170.035 -12.1493 90.7937 -13.6199 13.7484 -1.43166 75.7767 12.9208 0.798976 53.2663 9.09155 -0.250423 -166.671 68.4156 90.2573 -77.011 -0.520222 -5.22389 83.4012 -13.0478 -5.23678 19.7414 1.33307 8.3992 -3.33387 8.60888 -90.4466 9.65934 -6.84817 -0.353551 -1.99344 -6.85705 -0.0503665 -24.6608 -6.42399 -2.40387 -4.64819 -6.42399 -2.40387 99.2896 -19.9646 -89.1087 57.104 -25.706 63.9943 -66.2162 -1.36699 -71.6131 -10.2169 -0.0280537 -5.07654 -81.8035 -3.00243 83.4846 -22.4241 -26.8638 -75.728 46.7527 -11.5643 -101.407 11.4363 0.480353 0.348784 46.669 8.75778 -11.0607 -18.4723 14.2591 0.364279 
-133.677 89.6422 -111.992 67.104 -43.6831 81.5521 -172.677 -16.1061 91.3671 -11.5735 12.4772 1.21372 53.8656 -2.61467 2.25757 47.3224 9.88002 -14.2236 -175.098 65.0558 100.887 -58.9243 -9.15869 -2.25711 78.1891 -10.3558 -2.923 23.2776 0.389337 7.08886 -2.98876 8.85767 -91.2135 9.10615 -6.5036 -1.94459 -2.5495 -6.58287 -1.65535 -25.1766 -5.61808 -3.81393 -5.16401 -5.6181 -3.81394 94.4391 -16.625 -102.112 56.3095 -8.98409 65.6539 -61.1122 3.44475 -77.1652 -14.2907 -0.279679 -2.98666 -81.5648 -1.6849 83.8701 -22.507 -24.6368 -72.9434 45.1978 -12.3785 -102.219 10.596 0.12248 -2.49604 50.6895 12.1724 -7.98667 -21.0941 15.8448 1.0608 
-124.187 90.5529 -104.181 66.4231 -47.4792 81.4448 -173.556 -16.4215 89.4533 -19.9561 19.0527 1.07992 53.2018 -4.41464 2.75477 17.9174 -5.37708 1.90579 178.645 60.1534 106.769 -48.2733 -14.8614 1.52166 77.1071 -10.5572 -2.83585 27.2388 -1.1375 7.14364 -2.61344 8.82617 -91.6221 9.14523 -5.93788 -2.79119 -2.51457 -6.05491 -2.52647 -25.1036 -4.82492 -4.44842 -5.09094 -4.82491 -4.44843 90.9736 -12.5218 -113.314 58.0043 1.30422 63.761 -53.9038 7.17389 -81.9785 -14.1145 -0.466783 -1.40053 -82.5174 -6.92095 82.574 -17.9164 -13.3759 -67.4186 48.9244 -16.5601 -100.187 7.56573 0.0929346 -2.22949 47.0293 15.5773 -3.26377 -18.5564 16.2947 0.219843 
-115.598 90.1965 -96.9371 68.1841 -48.3601 80.1801 -172 -12.8546 87.3906 -36.9494 21.3578 -1.53912 55.1476 -3.44659 2.04539 29.6464 2.25069 -4.97011 174.731 54.1942 106.757 -47.2425 -8.61855 3.72913 76.9136 -9.91478 -2.3277 27.9774 -1.37367 6.9253 -2.56061 8.88005 -91.6067 9.04035 -5.82476 -2.77515 -2.61994 -5.94119 -2.51545 -25.2061 -4.72184 -4.39896 -5.19344 -4.72184 -4.39896 89.3393 -21.8635 -111.834 46.0308 1.19814 52.8069 -48.0218 8.37644 -87.4863 -15.3165 -0.809962 0.975148 -84.925 -17.792 80.097 -10.819 1.27683 -60.8124 59.0952 -22.2087 -95.1259 6.89682 0.494176 2.89309 47.5798 17.2608 -1.6289 -18.8485 16.8877 0.799126 
-106.953 90.4019 -89.249 71.6838 -49.2507 81.6986 -167.921 -4.62872 91.5329 -59.6025 15.4404 -2.31074 51.6859 -6.50393 1.64397 26.4582 3.10304 -9.61984 172.279 46.3256 104.949 -50.76 -7.25432 5.24783 75.697 -8.13206 -1.82877 18.6983 2.71127 5.6065 -2.35395 9.01555 -91.5949 8.77124 -5.40448 -2.79927 -2.89096 -5.5224 -2.55824 -25.4646 -4.31385 -4.29498 -5.45196 -4.31384 -4.29499 90.0469 -28.9152 -107.102 35.4035 2.34636 35.4732 -47.6449 8.30686 -91.6964 -15.5938 -1.07738 2.88612 -88.0214 -30.4688 77.1901 -5.44981 18.1983 -49.6564 65.4581 -25.6879 -90.0641 4.92113 0.241816 0.645863 45.787 17.6223 -0.200914 -15.842 16.4883 0.877473 
-99.0412 90.2208 -81.4879 72.0009 -52.0386 83.8457 -163.757 8.22982 94.3542 -79.777 7.57555 -0.600477 55.8924 -4.51213 4.20774 24.4926 1.8692 -8.21657 171.605 38.7247 106.461 -53.9377 -8.76494 5.28236 81.1172 -12.2943 -1.37258 22.7582 0.764901 6.50271 -1.75819 8.94338 -91.9819 8.90502 -4.38975 -3.62548 -2.76303 -4.54496 -3.42875 -25.2913 -3.09854 -4.77594 -5.27867 -3.09853 -4.77594 90.9851 -29.7211 -104.901 31.1534 8.98417 17.3612 -43.0994 8.06295 -96.4865 -14.9251 -1.06311 3.14841 -89.9879 -41.6382 76.7875 -9.8088 31.9899 -25.9853 64.0255 -27.7436 -89.0693 4.48985 0.218583 0.78188 40.2556 18.5538 5.21014 -10.8167 15.0459 -0.892412 
-91.8659 89.5325 -74.7136 69.3269 -59.1666 83.27 -161.955 24.9522 96.2339 -96.156 8.66598 1.54755 62.0072 -0.493072 8.23749 20.5594 1.67609 -10.5633 174.712 31.752 107.701 -54.752 -10.7933 3.57811 86.3971 -16.5997 -0.898905 24.4002 -0.384493 8.28512 -0.5669 8.83262 -92.0359 9.15905 -2.04173 -3.88796 -2.51586 -2.21073 -3.79452 -25.007 -0.780123 -4.32102 -4.99441 -0.780104 -4.32101 90.7042 -29.3755 -105.595 31.1252 17.1704 -1.73175 -42.1562 9.27793 -103.953 -16.9734 -1.50081 5.1446 -88.4042 -42.8758 79.6818 -26.0875 36.9218 10.2392 66.3011 -33.959 -90.8684 2.79308 0.111107 0.137791 36.8461 17.5974 7.21086 -8.79585 13.4076 -0.120155 
-84.4457 88.6706 -67.568 66.7125 -64.7271 79.2014 -165.323 39.2438 97.3293 -104.307 13.9005 2.82792 68.7977 5.05582 11.883 17.5923 -0.123134 -8.80832 178.319 23.7273 104.573 -54.3058 -11.6207 0.487548 91.1998 -20.2533 0.0663841 30.059 -2.10868 6.76738 0.695958 8.57405 -91.625 9.72547 0.652214 -3.27684 -1.94951 0.50744 -3.30235 -24.4583 1.6065 -2.92986 -4.44563 1.6065 -2.92987 90.4724 -26.2592 -107.275 34.7991 29.903 -21.077 -33.7879 6.83764 -113.108 -20.5982 -2.11477 6.67036 -85.4708 -37.4064 83.5373 -39.3467 37.3831 42.5658 66.2483 -42.5244 -93.6821 8.39179 0.527271 1.92091 32.0902 14.7979 8.28107 -6.44507 10.6933 -0.725643 
-75.9281 88.8124 -59.7394 67.5091 -65.7353 75.4482 -171.959 49.1374 97.2009 -101.691 8.72579 3.31922 74.5864 8.22175 10.2268 18.7771 0.316241 -8.90868 178.278 12.4638 97.2457 -49.3317 -13.9825 -2.36573 92.3077 -22.1905 -0.969569 33.5199 -3.45489 7.09181 1.91005 8.27917 -91.126 10.35 3.28989 -2.52422 -1.31957 3.17565 -2.66657 -23.8799 3.89621 -1.41801 -3.86729 3.89622 -1.41802 92.4371 -20.2775 -105.393 39.8159 43.2576 -37.1091 -30.8906 4.58057 -120.969 -19.319 -2.08651 7.41115 -83.867 -29.4159 85.0708 -45.429 41.1435 62.2606 59.9187 -47.1196 -97.8806 11.6144 0.611456 1.36899 25.9555 9.79056 10.457 -3.59317 5.60464 -2.37039 
-66.1481 90.4481 -50.7054 72.8007 -61.637 75.8187 -179.678 54.0912 95.895 -90.4295 6.42026 3.71082 78.5066 10.6024 9.63775 19.8573 -0.345796 -6.81174 174.004 -2.16998 89.0744 -36.733 -19.9286 -3.61925 82.3031 -17.19 -4.8721 41.4519 -6.03789 4.1306 2.76566 8.201 -90.6393 10.5182 5.21544 -1.73543 -1.14373 5.13403 -1.96378 -23.7629 5.49523 -0.0831656 -3.75029 5.49521 -0.083169 96.0096 -8.67987 -101.218 53.373 57.3576 -45.2834 -28.0414 1.27797 -129.999 -22.6452 -2.9549 9.87014 -83.6455 -19.3751 83.3808 -48.8287 45.5077 66.7131 61.406 -48.8367 -96.4949 11.2359 0.319926 -0.930846 24.8033 3.0924 8.66838 -4.03333 -0.100373 -0.7684 
-55.5504 92.8068 -40.4747 75.9039 -55.2435 74.3419 176.531 54.66 91.3388 -73.1374 7.36006 3.75688 84.2954 14.5615 5.39491 14.8928 -4.20117 -3.09588 169.556 -14.2793 82.6286 -22.0582 -20.4199 -4.1922 63.6785 -3.22032 -2.94979 42.9118 -6.91504 7.38013 3.13375 8.09412 -89.9621 10.7145 6.25823 -0.499784 -0.94149 6.23014 -0.775819 -23.5945 6.11796 1.41147 -3.58187 6.11794 1.41146 97.5664 -1.84317 -99.4104 56.1876 67.5133 -41.6592 -19.1491 -6.51924 -134.762 -24.9611 -2.3453 5.59787 -83.744 -13.9776 81.6572 -42.5857 50.139 59.9701 54.188 -48.3147 -102.293 14.7463 0.615965 0.312329 27.786 -3.15742 4.49633 -8.51009 -4.77101 1.07839 
-44.8924 94.8467 -29.6523 75.3651 -50.9097 70.7349 178.219 52.7253 86.4581 -53.9176 12.1075 1.70834 81.3385 13.7235 4.07549 17.4383 -5.57332 1.38524 167.232 -19.9996 79.7241 -18.3538 -21.1367 -5.45469 54.7564 4.06333 -1.42074 22.2723 0.366099 8.52406 3.34986 7.88347 -89.1733 11.096 7.05162 0.960888 -0.555817 7.08706 0.64804 -23.2223 6.43558 3.04405 -3.20961 6.43555 3.04405 97.7524 0.983688 -100.322 43.6519 69.4599 -27.4802 -19.5592 -3.88572 -139.167 -25.2106 -2.70836 7.20033 -83.8383 -11.7229 80.7424 -35.8081 52.3735 51.711 49.7159 -48.1179 -106.674 16.3386 0.772169 0.87274 29.9962 -7.59998 1.17181 -13.5651 -7.69611 -0.425507 
-34.997 95.5389 -19.6961 74.2626 -48.8755 69.9935 -177.613 49.24 84.1162 -37.4652 13.7015 -1.91137 75.8585 10.505 3.17446 24.7636 -2.69753 2.28524 167.784 -21.3395 80.9037 -25.1317 -21.7038 -4.47281 56.203 2.67877 -0.588228 18.542 2.06076 7.586 3.35662 7.63331 -88.9055 11.5764 7.18957 1.44033 -0.0750007 7.24595 1.12088 -22.7379 6.42321 3.54237 -2.7253 6.4232 3.54237 97.4691 0.216363 -100.956 35.6645 52.6862 -19.0798 -21.036 4.21711 -138.421 -21.6009 -1.86539 4.7251 -84.1292 -16.3594 81.3871 -30.9905 50.2739 46.7791 51.968 -48.9162 -106.912 14.5079 0.500858 -0.396089 27.7553 -9.51053 -0.43448 -11.911 -8.84868 -1.29424 
-25.3291 95.4942 -10.1459 76.3994 -48.5577 73.7898 -172.298 43.9282 83.1448 -32.2456 8.80017 -5.76275 75.6012 9.19089 -0.250758 23.0783 -5.69055 6.85544 171.647 -19.7039 86.0907 -42.1583 -21.837 -4.84038 57.787 2.00396 -0.0635673 20.0496 1.14795 8.60875 3.20879 7.5929 -89.0476 11.6679 6.829 1.18581 0.0147391 6.87453 0.882712 -22.639 6.15588 3.19047 -2.62635 6.15589 3.19047 96.1793 -5.08801 -102.516 34.5115 32.8836 -14.1055 -24.7992 11.8006 -133.404 -20.2256 -1.72947 4.73696 -84.2553 -24.3029 83.1986 -25.1014 44.5483 36.8108 58.1882 -47.8062 -103.856 11.4613 0.339547 -0.825945 26.7444 -10.3768 -2.66555 -11.2791 -8.93836 -0.406949 
-15.6039 94.9314 -0.502906 81.6003 -47.9343 78.1724 -168.821 35.2769 82.6454 -32.3942 -0.313103 -8.26331 70.4504 4.98458 -1.14441 28.7997 -1.19209 2.96817 172.666 -14.905 88.7097 -63.9009 -17.9434 -4.44096 60.654 0.692005 -2.40948 16.7015 1.29408 11.7665 2.83152 7.86977 -89.0223 11.1078 6.0898 1.35612 -0.549323 6.14357 1.08581 -23.1737 5.40009 3.12822 -3.16107 5.40008 3.12822 93.9746 -13.4093 -104.716 36.2083 18.8746 -6.06877 -33.1521 17.3408 -123.824 -17.1137 -1.72416 6.54438 -85.4292 -33.4099 82.8367 -19.9228 36.614 24.6416 64.0857 -45.2985 -100.429 5.04753 0.0665049 -1.88667 27.2756 -10.7376 -6.03044 -11.9075 -8.02092 -0.124034 
-5.92773 94.2344 8.57435 84.814 -45.2701 79.2241 -167.967 28.8281 81.366 -37.5717 -1.64766 -9.41189 70.2947 4.53816 1.22814 22.1312 -2.30199 -1.01908 170.727 -3.82816 86.6773 -83.5578 -6.23078 -3.28675 63.8485 -1.47078 -3.55576 15.1541 2.31154 10.4492 2.09836 8.13476 -88.7924 10.5649 4.73435 1.97493 -1.09857 4.81666 1.76427 -23.6731 3.92197 3.30766 -3.66046 3.92199 3.30767 93.3309 -19.8254 -103.568 44.0099 11.0578 3.02462 -36.9687 13.4342 -110.751 -19.2399 -1.78078 5.78518 -87.9832 -43.8162 80.5624 -9.71853 25.4479 4.83853 62.2969 -41.479 -102.813 3.03935 0.0742395 -0.968685 28.749 -10.759 -9.63191 -11.916 -6.64634 1.32761 
